<svg id="Icon_ionic-ios-camera" data-name="Icon ionic-ios-camera" xmlns="http://www.w3.org/2000/svg" width="77.333" height="58" viewBox="0 0 77.333 58">
  <path id="Caminho_2" data-name="Caminho 2" d="M37.117,26.873a11.58,11.58,0,1,1-11.58-11.58A11.58,11.58,0,0,1,37.117,26.873Z" transform="translate(13.13 5.954)"/>
  <path id="Caminho_3" data-name="Caminho 3" d="M75.691,17.542H64.715A3.268,3.268,0,0,1,62.3,16.454c-5.719-6.4-7.874-8.579-10.21-8.579H34.869c-2.356,0-4.672,2.175-10.412,8.6a3.206,3.206,0,0,1-2.4,1.067h-.826V15.931a1.616,1.616,0,0,0-1.611-1.611H14.388a1.616,1.616,0,0,0-1.611,1.611v1.611h-1.51C7.7,17.542,4.5,20.2,4.5,23.724V59.169a6.972,6.972,0,0,0,6.747,6.706H75.691c3.544,0,6.142-3.182,6.142-6.706V23.724A6,6,0,0,0,75.691,17.542ZM43.972,57.9A17.217,17.217,0,1,1,60.365,41.507,17.234,17.234,0,0,1,43.972,57.9ZM62.5,29.222A2.618,2.618,0,1,1,65.118,26.6,2.613,2.613,0,0,1,62.5,29.222Z" transform="translate(-4.5 -7.875)"/>
</svg>
